<svg width="17" height="17" xmlns="http://www.w3.org/2000/svg" xmlns:xlink="http://www.w3.org/1999/xlink" xml:space="preserve" overflow="hidden"><g transform="translate(-1060 -528)"><g><g><g><g><path d="M1076.1 542.333 1069.58 531C1069.33 530.55 1068.68 530.55 1068.43 531L1061.9 542.333C1061.65 542.783 1061.97 543.333 1062.48 543.333L1069 543.333 1075.52 543.333C1076.03 543.333 1076.35 542.783 1076.1 542.333ZM1068.5 533.667 1069.5 533.667 1069.5 539.5 1068.5 539.5 1068.5 533.667ZM1069 541.833C1068.53 541.833 1068.17 541.467 1068.17 541 1068.17 540.533 1068.53 540.167 1069 540.167 1069.47 540.167 1069.83 540.533 1069.83 541 1069.83 541.467 1069.47 541.833 1069 541.833Z" fill="#767171" fill-rule="nonzero" fill-opacity="1"/></g></g></g></g></g></svg>